Coordinates											
version=1											
nRows=65											
nColumns=12											
inDegrees=yes											
											
"Units are S.I. units (second, meters, Newtons, ...)"											
"If the header above contains a line with 'inDegrees', this indicates whether rotational values are in degrees (yes) or radians (no)."											
											
endheader											
time	clav_prot	clav_elev	scapula_abduction	scapula_elevation	scapula_upward_rot	scapula_winging	plane_elv	shoulder_elv	axial_rot	elbow_flexion	pro_sup
0	-24.67480871	-3.77199848	-15.30749535	-4.1751759	14.61024729	4.83230355	-25.06037289	12.07133809	44.60257667	0	34.32
0.01	-24.62848801	-3.78193126	-15.26344857	-4.16335904	14.54628213	4.85287207	-24.711121	12.57814793	39.78042713	0	34.32
0.02	-24.60373173	-3.71039315	-15.20278939	-4.12326667	14.60885913	4.81458949	-24.89358459	12.74373852	37.15682706	0	34.32
0.03	-24.62991899	-3.69037169	-15.1718018	-4.14465943	14.74512236	4.77292919	-26.25838797	12.0007912	45.61302905	0	34.32
0.04	-24.56520763	-3.79176741	-15.18710469	-4.15183433	14.48782154	4.87236759	-24.27091764	13.09114833	34.93875037	0	34.32
0.05	-24.65710559	-3.76322441	-15.22404624	-4.19107008	14.70276673	4.80636263	-26.11639089	11.98488184	45.99889609	0	34.32
0.06	-24.67782746	-3.79129089	-15.32365159	-4.18336443	14.58361324	4.84518955	-25.40671455	12.13177745	44.95318047	0	34.32
0.07	-24.65341926	-3.80594589	-15.26026931	-4.20034775	14.61267774	4.84326731	-25.4467613	12.11950387	44.9508239	0	34.32
0.08	-24.64470473	-3.84822176	-15.22243411	-4.23715577	14.63240197	4.85221928	-25.53135063	12.32294928	42.17783943	0	34.32
0.09	-24.56784352	-3.87374691	-15.15785759	-4.21968402	14.50770493	4.89391341	-25.25122027	12.50678667	41.77938399	0	34.32
0.1	-24.62689076	-3.80320812	-15.12606626	-4.23499939	14.76244607	4.80519159	-26.61438215	11.92792614	46.33569406	0	34.32
0.11	-24.61666192	-3.86032825	-15.2469552	-4.21183333	14.50490428	4.88913154	-24.14378636	12.96767383	35.15589772	0	34.32
0.12	-24.64956428	-3.77668899	-15.14957331	-4.22583785	14.80004219	4.78648368	-26.52998017	11.87278246	46.35216874	0	34.32
0.13	-24.53538959	-3.8523282	-15.12983823	-4.19175263	14.47072438	4.89696923	-24.49879274	13.08373386	34.88440174	0	34.32
0.14	-24.63077653	-3.85396867	-15.09457872	-4.2845148	14.80357166	4.81118072	-26.90633041	11.87896887	46.66293191	0	34.32
0.15	-24.62487668	-3.85136794	-15.14567422	-4.25632992	14.70277541	4.8363228	-26.3545002	11.90734464	47.43510877	0	34.32
0.16	-24.67556868	-3.80901308	-15.3329707	-4.18893203	14.55358162	4.85926925	-25.14215668	11.99717269	45.44705111	0	34.32
0.17	-24.67602223	-3.88014062	-15.30464773	-4.247486	14.57010635	4.87760609	-25.20847053	12.06983976	45.44026592	0	34.32
0.18	-24.6110671	-4.00130968	-15.33586403	-4.26044035	14.27668919	4.9934273	-23.46049164	13.45433031	32.77447769	0	34.32
0.19	-24.58523252	-3.82171552	-15.27925431	-4.14732713	14.37685315	4.90946448	-23.43242992	13.1905359	32.97494306	0	34.32
0.2	-24.60322646	-3.87988261	-15.37258329	-4.15914275	14.24576279	4.96118332	-22.64369748	13.28924904	32.27882298	0	34.32
0.21	-24.56745518	-3.81771768	-15.31868825	-4.11322165	14.26089907	4.93816232	-22.66771043	13.36989489	32.34415528	0	34.32
0.22	-24.61121842	-3.71470516	-15.04867675	-4.19820142	14.88629757	4.74545728	-26.55359087	11.87979139	45.69175245	0	34.32
0.23	-24.60263848	-3.76583444	-15.15914517	-4.17719025	14.6541076	4.82092739	-25.19510376	12.22800994	42.68990769	0	34.32
0.24	-24.56964307	-3.72136551	-15.05833627	-4.16518863	14.74790028	4.78369415	-25.35960717	12.3462188	40.83635987	0	34.32
0.25	-24.58404525	-3.67305894	-15.02461488	-4.1599117	14.86739058	4.73747447	-26.41881167	11.79640727	46.48119068	0	34.32
0.26	-24.58020375	-3.67667731	-14.97803602	-4.1790297	14.93238809	4.72228647	-26.80861787	11.82952033	46.0165894	0	34.32
0.27	-24.55171733	-3.74754321	-15.07199701	-4.16206204	14.66221687	4.81475318	-24.84518956	12.6204678	38.51662914	0	34.32
0.28	-24.56399528	-3.72183026	-15.12572575	-4.13198039	14.61858501	4.81672172	-24.54027337	12.61992915	38.25160384	0	34.32
0.29	-24.60550602	-3.70729999	-15.01932427	-4.20142724	14.92236262	4.73418459	-26.36542924	11.93385394	44.38565542	0	34.32
0.3	-24.57213843	-3.75058543	-15.02544163	-4.20023014	14.7970683	4.78081982	-25.36020578	12.46969466	38.6528386	0	34.32
0.31	-24.62791792	-3.70409917	-15.06768031	-4.19655884	14.90737835	4.73663066	-26.22852052	11.83442601	45.47741878	0	34.32
0.32	-24.55727103	-3.60392721	-14.97350394	-4.11554989	14.90682266	4.70587096	-26.21120523	11.80770449	45.48285717	0	34.32
0.33	-24.45783672	-3.72430332	-15.0273526	-4.09066588	14.47677473	4.85583826	-23.16221667	13.44212864	29.54961467	0	34.32
0.34	-24.45741488	-3.65425715	-15.07209207	-4.02550317	14.43167246	4.84482364	-23.12653189	13.39933524	29.6835239	0	34.32
0.35	-24.57006965	-3.55173067	-15.0322787	-4.06688348	14.86899149	4.69853473	-25.84907231	11.74756644	45.64562189	0	34.32
0.36	-24.59677071	-3.54025078	-15.0484588	-4.07383433	14.92368102	4.68031694	-26.08877758	11.63957575	46.24653946	0	34.32
0.37	-24.52651754	-3.63580823	-15.04559073	-4.08074975	14.68382445	4.77343914	-24.27826819	12.6964551	35.7272505	0	34.32
0.38	-24.55048187	-3.62457	-15.08524489	-4.07559652	14.69130798	4.76737316	-24.06673657	12.73285574	35.19166977	0	34.32
0.39	-24.52610887	-3.64735483	-15.05665534	-4.0830954	14.65883606	4.78348721	-24.37010044	12.74483052	35.91527382	0	34.32
0.4	-24.50686385	-3.58980009	-14.92807713	-4.08560048	14.84446319	4.71842516	-25.31575662	12.6463371	34.46507712	0	34.32
0.41	-24.5685181	-3.56872505	-14.97677145	-4.10044761	14.94966046	4.68349808	-26.27703882	11.64899287	45.82157331	0	34.32
0.42	-24.51046157	-3.57635706	-15.00586134	-4.04645936	14.73091086	4.74286982	-25.2633767	11.82799494	44.38477621	0	34.32
0.43	-24.44884393	-3.61698828	-14.87368472	-4.08013049	14.75657065	4.75057646	-25.0176307	12.28009906	40.43193913	0	34.32
0.44	-24.35196606	-3.69494182	-14.86311761	-4.05730079	14.46022017	4.85247961	-23.59186034	12.94202456	34.8640742	0	34.32
0.45	-24.39241491	-3.71412209	-14.88815719	-4.09143883	14.52610209	4.84121204	-23.59756384	12.83773847	34.94673881	0	34.32
0.46	-24.35799267	-3.72448285	-14.80720234	-4.10538942	14.55803758	4.83707298	-23.74261219	12.85658557	33.44842894	0	34.32
0.47	-24.37499338	-3.76801119	-14.67565057	-4.20385277	14.80789172	4.78712447	-26.42679624	11.58721218	47.34638187	0	34.32
0.48	-24.33892628	-3.74078921	-14.57776171	-4.19922791	14.87990254	4.76102758	-26.39919707	11.48202919	47.3411557	0	34.32
0.49	-24.20307104	-3.85859507	-14.4765205	-4.21044591	14.60621793	4.8703257	-24.45047772	12.70563978	35.74169507	0	34.32
0.5	-24.21148021	-3.94822962	-14.4685188	-4.27879512	14.60397832	4.89991506	-24.41542444	12.64826846	35.79584161	0	34.32
0.51	-24.19028018	-4.05975034	-14.48495127	-4.32730596	14.46619676	4.9714747	-23.93960028	12.9289825	34.64090689	0	34.32
0.52	-24.15693881	-3.91368628	-14.39565484	-4.24385148	14.58401612	4.89404151	-23.79876093	12.80686936	34.84242758	0	34.32
0.53	-24.2088205	-3.94792986	-14.39468726	-4.3082128	14.72021217	4.87057892	-25.28504568	11.74864831	45.77845816	0	34.32
0.54	-24.16848977	-3.99861876	-14.42325739	-4.29651383	14.53363898	4.93463337	-23.6639614	12.26817904	40.15532421	0	34.32
0.55	-24.09104239	-4.04718526	-14.26347814	-4.33472178	14.5568835	4.94543042	-24.44419724	11.74506705	46.97771165	0	34.32
0.56	-24.14043285	-4.00896331	-14.40307399	-4.28936091	14.48195058	4.95139809	-23.57605522	11.88616799	45.09919478	0	34.32
0.57	-24.1047975	-3.9751189	-14.46091802	-4.21337713	14.2961005	4.98722049	-21.37469116	12.65883975	37.02602504	0	34.32
0.58	-24.12685003	-3.90306088	-14.36839898	-4.22457083	14.54800646	4.90051412	-22.56650942	11.95385886	44.21330749	0	34.32
0.59	-24.09223635	-3.93055279	-14.2367941	-4.2712806	14.65641225	4.88202735	-22.51491666	11.96322353	44.21196176	0	34.32
0.6	-23.97018126	-4.034819	-14.27076101	-4.22572504	14.19974817	5.03188256	-19.28730106	13.05073192	34.95477173	0	34.32
0.61	-24.04008688	-4.11649136	-14.31252589	-4.31759943	14.29659773	5.03397695	-18.5715696	12.70631618	36.62538882	0	34.32
0.62	-23.93079066	-4.09450443	-14.07025791	-4.31983297	14.39729893	5.00184942	-18.48833934	12.62200871	36.66971819	0	34.32
0.63	-23.99457125	-4.04252674	-14.29668059	-4.23928646	14.22357773	5.02849929	-16.5374409	12.41728524	37.40101673	0	34.32
0.64	-23.92220544	-4.15356228	-14.16681113	-4.30945445	14.18376527	5.07496172	-16.74515144	12.52990387	38.37094739	0	34.32
